<?xml version="1.0" standalone="no"?>
<!DOCTYPE svg PUBLIC "-//W3C//DTD SVG 20010904//EN"
 "http://www.w3.org/TR/2001/REC-SVG-20010904/DTD/svg10.dtd">
<svg version="1.0" xmlns="http://www.w3.org/2000/svg"
 width="1093.000000pt" height="1280.000000pt" viewBox="0 0 1093.000000 1280.000000"
 preserveAspectRatio="xMidYMid meet">
<metadata>
Created by potrace 1.15, written by Peter Selinger 2001-2017
</metadata>
<g transform="translate(0.000000,1280.000000) scale(0.100000,-0.100000)"
fill="#FFF" stroke="none">
<path d="M5100 11289 c-273 -25 -298 -29 -485 -83 -386 -111 -680 -245 -884
-404 -126 -97 -385 -360 -464 -472 -81 -115 -186 -322 -227 -448 -55 -170
-100 -421 -115 -643 -7 -102 10 -360 30 -468 44 -227 196 -607 321 -799 175
-270 408 -575 604 -792 206 -228 439 -515 671 -825 102 -136 407 -557 423
-583 4 -7 81 -239 172 -515 117 -359 164 -515 164 -549 0 -47 0 -47 -42 -58
-279 -74 -425 -120 -579 -185 -181 -75 -208 -89 -297 -155 -80 -59 -258 -220
-309 -280 -118 -140 -183 -304 -183 -466 0 -166 18 -269 85 -473 35 -108 72
-230 83 -271 34 -124 73 -197 176 -324 62 -78 103 -139 117 -175 29 -76 76
-272 85 -351 4 -36 15 -93 25 -127 9 -34 15 -64 12 -67 -10 -10 -11 -91 -2
-129 16 -62 31 -67 256 -73 143 -4 203 -2 208 6 5 8 61 10 182 9 189 -3 193
-2 193 52 0 14 -16 52 -35 84 -51 84 -68 143 -61 207 3 29 9 139 12 243 5 144
10 194 20 206 8 9 18 33 21 53 3 20 9 36 13 36 4 0 12 11 18 25 6 13 27 31 45
39 24 9 37 23 41 42 4 15 16 34 27 42 10 7 19 19 19 25 0 15 125 71 138 63 16
-9 31 -182 43 -496 12 -291 12 -296 -10 -385 -12 -49 -29 -111 -37 -136 -8
-26 -14 -66 -12 -90 3 -42 4 -44 43 -51 110 -20 459 -6 499 20 6 4 65 12 131
17 l120 10 3 29 c5 43 -16 82 -68 126 -41 35 -48 46 -54 88 -5 41 -2 59 24
115 17 37 35 91 41 120 27 125 95 346 159 517 54 144 69 216 63 319 l-5 94 35
-7 c21 -4 38 -2 42 4 4 6 14 5 28 -5 12 -8 50 -29 84 -47 78 -42 151 -99 271
-215 82 -78 99 -90 115 -81 18 9 19 18 12 113 l-7 102 33 7 c18 3 33 5 34 4 6
-7 78 -228 95 -292 10 -40 35 -149 55 -242 19 -93 44 -209 55 -259 23 -105 25
-154 7 -179 -11 -15 -17 -15 -42 -6 -76 30 -106 11 -103 -63 2 -44 1 -44 74
-63 73 -19 121 -6 179 47 54 50 79 116 72 192 -2 29 -9 106 -15 172 -6 66 -14
239 -17 385 -4 146 -8 283 -10 305 -12 135 -21 184 -52 305 -19 74 -39 175
-44 224 -7 65 -19 113 -45 175 -67 160 -73 183 -74 263 0 92 -9 119 -59 178
-21 25 -53 69 -70 97 -50 81 -137 127 -291 153 -131 23 -238 54 -360 105 -69
30 -192 74 -275 100 -82 25 -231 73 -330 105 -99 32 -197 61 -217 65 -44 8
-53 18 -62 67 -6 32 19 112 160 530 l167 493 72 90 c39 50 97 126 130 170 80
109 589 696 906 1045 293 323 453 510 582 683 221 294 253 347 358 606 148
364 173 455 199 721 47 474 -125 1003 -452 1395 -164 197 -298 305 -579 466
-322 185 -514 249 -1034 345 l-190 35 -380 4 c-209 1 -423 -1 -475 -6z m348
-5516 c27 -15 36 -16 78 -5 26 7 49 10 52 8 3 -3 -14 -225 -38 -493 -24 -269
-43 -496 -44 -505 0 -13 -9 -18 -33 -18 -24 0 -32 4 -31 18 0 9 -10 238 -21
507 -11 270 -21 493 -21 498 0 12 27 8 58 -10z m-68 -35 c0 -23 7 -213 15
-422 8 -210 16 -420 18 -468 l3 -88 -50 2 -51 1 45 6 45 5 -44 5 -45 6 -159
478 c-87 264 -156 482 -152 485 6 6 245 28 333 31 l42 1 0 -42z m433 30 c79
-7 131 -16 133 -23 3 -6 -69 -227 -159 -491 l-164 -479 -54 4 c-30 1 -55 4
-56 5 -3 3 77 947 83 974 5 27 27 28 217 10z m-230 -1005 c-13 -2 -35 -2 -50
0 -16 2 -5 4 22 4 28 0 40 -2 28 -4z m-176 -27 c3 -3 1 -17 -4 -33 -7 -20 -18
-29 -41 -34 l-32 -6 0 45 0 45 36 -6 c20 -3 39 -8 41 -11z m207 -8 c14 -55 9
-64 -35 -60 -31 3 -43 10 -51 27 -17 37 -4 55 41 55 32 0 40 -4 45 -22z m-814
-2343 c0 -28 5 -56 11 -62 9 -9 9 -20 0 -44 -6 -17 -11 -47 -11 -65 0 -19 -4
-34 -9 -34 -16 0 -48 233 -36 270 6 20 8 21 26 4 14 -13 19 -31 19 -69z"/>
</g>
</svg>
